<?xml version="1.0" encoding="UTF-8" standalone="no"?>
<!-- Created with Inkscape (http://www.inkscape.org/) -->

<svg
   width="100%"
   height="100%"
   viewBox="0 0 541.86667 541.86667"
   version="1.1"
   id="svg1001"
   inkscape:export-filename="logo-only.pdf"
   inkscape:export-xdpi="96"
   inkscape:export-ydpi="96"
   inkscape:version="1.2.1 (9c6d41e4, 2022-07-14)"
   sodipodi:docname="logo-only.svg"
   xmlns:inkscape="http://www.inkscape.org/namespaces/inkscape"
   xmlns:sodipodi="http://sodipodi.sourceforge.net/DTD/sodipodi-0.dtd"
   xmlns="http://www.w3.org/2000/svg"
   xmlns:svg="http://www.w3.org/2000/svg">
  <sodipodi:namedview
     id="namedview1003"
     pagecolor="#ffffff"
     bordercolor="#999999"
     borderopacity="1"
     inkscape:showpageshadow="0"
     inkscape:pageopacity="0"
     inkscape:pagecheckerboard="0"
     inkscape:deskcolor="#d1d1d1"
     inkscape:document-units="mm"
     showgrid="false"
     inkscape:zoom="0.49658203"
     inkscape:cx="834.706"
     inkscape:cy="953.51819"
     inkscape:window-width="1390"
     inkscape:window-height="847"
     inkscape:window-x="12"
     inkscape:window-y="25"
     inkscape:window-maximized="0"
     inkscape:current-layer="svg1001" />
  <defs
     id="defs998" />
  <ellipse
     style="fill:#f7931a;"
     id="path1422"
     cx="272.72253"
     cy="266.25833"
     rx="191.88631"
     ry="192.65077"
     inkscape:label="path1422" />
  <a
     id="a5991"
     transform="matrix(0.17459462,0,0,0.18019725,84.123339,116.87915)">
    <a
       id="a5800"
       transform="translate(67.048352,-113.3228)"
       style="display:inline">
      <path
         style="fill:#ffffff;stroke-width:2.08271"
         d="m 1621.5606,1537.8984 c -14.8368,-3.989 -24.2005,-9.9795 -31.6298,-20.2353 -8.2023,-11.3229 -11.0839,-22.0393 -19.6615,-73.1189 -9.917,-59.0563 -24.6264,-132.4593 -32.3821,-161.5937 -7.3837,-27.737 -14.6084,-42.3839 -29.9741,-60.7683 -12.7218,-15.2211 -133.8165,-144.0953 -136.2003,-144.9504 -0.8764,-0.3143 -10.3352,38.5804 -21.0196,86.4326 -21.5357,96.4516 -21.2794,95.7239 -53.0171,150.5268 -29.8811,51.5968 -119.3445,192.5813 -127.7761,201.3611 -14.2894,14.8795 -24.1762,18.3336 -52.5251,18.3506 -21.5078,0.013 -25.1382,-0.5423 -35.5862,-5.442 -14.1807,-6.6501 -25.9497,-18.0415 -31.826,-30.8049 -3.3798,-7.341 -4.4034,-13.6653 -4.4124,-27.2615 -0.011,-16.237 0.608,-18.9103 7.4711,-32.282 4.1155,-8.0184 17.8068,-30.9803 30.4251,-51.0264 26.123,-41.5001 89.9101,-145.3719 107.4346,-174.9478 14.0567,-23.7234 20.4096,-44.4223 38.7212,-126.1609 15.8563,-70.7786 77.5706,-369.7522 76.801,-372.06085 -1.0165,-3.04948 -50.1177,30.71224 -62.75,43.14657 -20.593,20.27022 -25.2817,35.50001 -41.9984,136.42025 -11.6805,70.51579 -11.8102,71.00804 -20.7956,78.89731 -21.6917,19.04559 -62.0803,15.08646 -75.2441,-7.37586 -5.0632,-8.63982 -5.3503,-10.44747 -4.0195,-25.31318 0.7883,-8.80493 7.4857,-47.87444 14.8833,-86.82115 21.4034,-112.68419 29.0915,-139.04846 45.367,-155.57324 14.5859,-14.80926 42.6066,-36.98636 126.412,-100.04914 93.0125,-69.99108 107.2406,-78.69898 135.8581,-83.14806 40.3162,-6.26782 83.0447,11.32405 104.5032,43.02536 4.7903,7.07684 17.3828,34.174 29.0362,62.48136 22.7837,55.34429 48.5972,109.86044 61.2406,129.33544 8.578,13.21302 18.4942,23.40014 32.6944,33.58769 14.4329,10.35453 97.1139,63.8711 115.2913,74.62415 27.9248,16.51923 35.6677,27.91589 35.6937,52.53723 0.028,25.99718 -15.667,42.19872 -41.4521,42.79148 -15.7009,0.36096 -30.6624,-6.94838 -88.7058,-43.3365 -98.8027,-61.94062 -101.5328,-64.4849 -136.3711,-127.08797 -8.287,-14.89139 -15.7497,-27.81027 -16.5839,-28.7086 -0.8341,-0.89836 -6.9023,23.00076 -13.4849,53.10915 -6.5826,30.10837 -16.1102,72.7531 -21.1724,94.76605 -5.0622,22.01298 -9.204,42.76301 -9.204,46.11124 0,8.24908 11.5043,23.22093 49.0392,63.82047 87.3326,94.4629 127.1445,142.5173 140.689,169.8164 9.3975,18.9409 16.9597,52.2981 31.8616,140.5447 17.6059,104.259 24.6829,160.1841 22.0363,174.1394 -2.5092,13.2307 -4.1893,16.1759 -14.5858,25.5686 -19.3774,17.5063 -54.0789,24.4702 -83.081,16.6727 z"
         id="path1283"
         transform="scale(1.0416667)" />
      <path
         style="fill:#ffffff;stroke-width:2.08271"
         d="m 1443.7178,486.31159 c -37.1882,-10.22329 -68.8163,-42.47112 -76.1892,-77.68191 -4.8663,-23.24016 -1.8111,-53.27382 7.4044,-72.78753 6.6288,-14.03639 23.4728,-32.46978 38.656,-42.30358 6.8124,-4.41228 18.926,-9.61221 28.2584,-12.13036 71.8365,-19.38358 138.806,29.23269 138.8111,100.76941 0,49.32837 -32.5015,91.502 -80.3374,104.23398 -13.7449,3.65832 -43.1209,3.60642 -56.6033,-0.1 z"
         id="path1285"
         transform="scale(1.0416667)" />
    </a>
    <path
       style="fill:#ffffff;stroke:#f4992c;stroke-width:2.16949;stroke-opacity:1"
       d="m 588.81106,1476.58 c -29.23389,-7.1964 -53.42373,-13.3465 -53.75516,-13.6669 -0.33145,-0.3203 9.67962,-42.368 22.24686,-93.4392 12.56721,-51.0712 22.57553,-93.1307 22.24073,-93.4655 -1.74409,-1.7441 -86.9448,-22.7242 -89.93702,-22.1464 -2.73177,0.5275 -8.48279,20.9698 -25.71796,91.4157 -12.20966,49.9048 -22.7735,91.3102 -23.4752,92.0118 -1.12252,1.1225 -107.21354,-24.348 -109.04533,-26.1797 -0.39413,-0.3942 9.60214,-42.9539 22.21395,-94.5771 12.61181,-51.6232 22.30777,-94.4832 21.54658,-95.2443 -0.76118,-0.7613 -52.0357,-14.0944 -113.94332,-29.6292 l -112.55933,-28.2452 27.17291,-62.8951 c 14.9451,-34.5923 27.59675,-63.3189 28.11477,-63.837 0.51802,-0.518 19.7251,3.8096 42.6824,9.6168 50.15164,12.6864 60.63724,13.2854 73.55984,4.2031 11.22048,-7.8861 15.91969,-15.6111 21.25827,-34.9463 6.82162,-24.70667 110.52938,-444.47261 117.36754,-475.05508 7.90051,-35.33369 8.11405,-47.40406 1.08405,-61.27707 -12.30362,-24.28005 -29.53137,-32.63313 -101.56305,-49.244 -14.02035,-3.23316 -25.49884,-6.96153 -25.50775,-8.28523 -0.045,-6.67371 27.40425,-114.79137 29.33134,-115.53087 1.23347,-0.47333 52.92365,11.83161 114.86706,27.3443 61.9434,15.5127 112.78366,27.97959 112.97832,27.70423 0.19461,-0.27539 10.48427,-41.86328 22.86573,-92.41757 14.20061,-57.98193 23.59314,-92.33184 25.44078,-93.04085 1.61098,-0.61819 22.97819,3.99908 47.48273,10.26061 61.41106,15.69208 59.25365,15.00636 59.25365,18.83323 0,1.86439 -9.75535,42.92701 -21.67857,91.25028 -11.92323,48.32327 -21.20859,88.62097 -20.63413,89.55044 0.57444,0.92946 4.71624,2.3502 9.20398,3.15719 4.48777,0.80699 24.57614,5.40957 44.64083,10.22794 20.06472,4.81841 37.00779,8.23418 37.65131,7.59067 0.64351,-0.64352 11.21607,-41.31776 23.49455,-90.3872 12.27847,-49.06944 22.69033,-89.58297 23.13741,-90.03007 0.44709,-0.44708 25.20033,5.2973 55.00724,12.76532 53.11297,13.30728 54.17899,13.6833 53.42608,18.8452 -0.9908,6.79264 -42.92229,175.43702 -44.86769,180.45345 -1.05568,2.72219 -0.40778,3.7966 2.28944,3.7966 5.31471,0 58.433,22.1887 86.26677,36.03557 75.36463,37.49269 123.09283,89.59019 137.43623,150.01795 5.6634,23.85976 4.8336,63.79368 -1.9326,93.00356 -12.8304,55.38942 -34.5844,91.7201 -70.0913,117.05729 -14.9223,10.64829 -38.5835,22.16661 -57.8919,28.18171 -6.86104,2.1374 -12.4746,4.5033 -12.4746,5.2576 0,0.7543 3.66102,3.1112 8.1356,5.2375 12.6765,6.0238 34.9159,21.4273 50.95,35.2892 26.9682,23.31456 45.2499,50.85586 55.9078,84.22463 6.6477,20.81317 8.3665,65.73347 3.5696,93.28817 -18.462,106.0498 -75.579,183.7136 -154.87491,210.5883 -35.55403,12.0499 -49.59273,14.2298 -99.77973,15.4938 -50.56737,1.2735 -76.2338,-0.6216 -127.13526,-9.3869 -17.69683,-3.0475 -32.50427,-5.2126 -32.90543,-4.8115 -0.40119,0.4012 -10.63175,41.244 -22.73458,90.7618 -25.30676,103.5405 -23.75897,97.6658 -25.68607,97.4921 -0.81449,-0.074 -25.39956,-6.0215 -54.63346,-13.2178 z M 798.167,1147.2562 c 44.25593,-14.1844 69.78898,-40.2473 78.16834,-79.7903 11.86453,-55.9901 -11.70733,-99.83444 -72.89179,-135.58064 -22.7274,-13.27836 -43.15642,-22.22406 -76.32751,-33.42316 -46.97897,-15.8609 -136.9743,-37.8464 -140.25303,-34.2632 -2.38622,2.6078 -63.92676,250.3434 -62.53425,251.7361 2.0959,2.0958 74.91226,20.3325 106.78739,26.7444 48.51506,9.7593 58.83221,10.7255 107.38983,10.0567 39.0738,-0.5382 46.31876,-1.2036 59.66102,-5.4799 z m 19.52542,-368.99813 c 59.39359,-8.46208 92.54439,-42.56828 95.93876,-98.70371 1.88756,-31.21665 -6.20366,-52.99798 -28.42436,-76.51735 -20.44394,-21.63878 -55.56701,-41.20008 -100.50024,-55.97228 -30.73311,-10.10378 -101.40853,-27.33345 -108.62362,-26.48089 -6.55725,0.77481 -2.70253,-12.58434 -38.58256,133.7142 -12.67871,51.69655 -22.49757,94.54833 -21.81973,95.22618 2.37961,2.37958 86.80368,22.17119 108.49276,25.43401 38.76623,5.83188 68.40654,6.87773 93.51899,3.29984 z"
       id="path2779" />
  </a>
</svg>
